<svg xmlns="http://www.w3.org/2000/svg" width="38.095" height="46.598" viewBox="-0.3 0 10.079 12.329">
<defs>
<clipPath id="a" clipPathUnits="userSpaceOnUse">
<path d="M473.452 610.624h28.571v-34.949h-28.571z"/>
</clipPath>
</defs>
<g clip-path="url(#a)" style="opacity:1" transform="matrix(.35278 0 0 -.35278 -167.323 215.415)">
<path d="M0 0a1.959 1.959 0 0 1-1.796-2.737c.179-.408.463-1.249.463-1.985v-28.891a1.335 1.335 0 1 1 2.669 0v28.891c0 .736.283 1.577.459 1.985A1.958 1.958 0 0 1 0 0" style="fill:#ccc;fill-opacity:1;fill-rule:nonzero;stroke:none" transform="translate(475.41 610.624)"/>
<path d="M0 0c-.27-.368-.267-.863.008-1.198a31.766 31.766 0 0 1 4.397-4.395c1.255-1.025-.381-1.772-.748-1.928-7.47-3.191-14.934 3.485-22.399 1.452v15.76c7.477 2.034 14.953-4.671 22.43-1.439.365.156.698.118.859-.128.16-.244.12-.664-.103-1.075A63.255 63.255 0 0 0 0 0" style="fill:#ccc;fill-opacity:1;fill-rule:nonzero;stroke:none" transform="translate(497.152 596.974)"/>
</g>
</svg>